<svg id="Capa_1" enable-background="new 0 0 497 497" height="512" viewBox="0 0 497 497" width="512" xmlns="http://www.w3.org/2000/svg"><g><path d="m323.5 67.771 98.5 285.729h30v-96.5c0-85.903-53.228-159.369-128.5-189.229z" fill="#ec9345"/><path d="m323.5 67.771c-23.209-9.207-48.513-14.271-75-14.271-112.39 0-203.5 91.11-203.5 203.5v96.5h377v-96.5c0-85.903-40.801-159.369-98.5-189.229z" fill="#ecc04b"/><path d="m452 278.5h-30v75h45v-60c0-8.284-6.716-15-15-15z" fill="#eb653e"/><path d="m422 278.5h-8.5c-49.706 0-90-40.294-90-90v-131.508c0-3.225-2.06-6.092-5.117-7.12-15.254-5.13-31.125-8.565-47.383-10.221l-22.5 111.349-22.5-111.349c-16.257 1.656-32.129 5.091-47.383 10.221-3.057 1.028-5.117 3.895-5.117 7.12v131.508c0 49.706-40.294 90-90 90h-38.5c-8.284 0-15 6.716-15 15v60h407v-60c0-8.284-6.716-15-15-15z" fill="#ec9345"/><path d="m248.5 38.5c-7.598 0-15.103.395-22.5 1.154v216.346c0 12.426 10.073 22.5 22.5 22.5s22.5-10.074 22.5-22.5v-216.346c-7.397-.759-14.902-1.154-22.5-1.154z" fill="#ecc04b"/><path d="m467 323.5-45 45h30c21.821 0 40.015-15.532 44.129-36.143.917-4.594-2.695-8.857-7.38-8.857z" fill="#ec9345"/><path d="m467 323.5h-458.749c-4.685 0-8.297 4.263-7.38 8.857 4.114 20.611 22.308 36.143 44.129 36.143h377c24.853 0 45-20.147 45-45z" fill="#ecc04b"/><path d="m467 398.5h-30l-30 30 30 30h30c16.569 0 30-13.431 30-30s-13.431-30-30-30z" fill="#ea3838"/><path d="m30 410.273-17.904 3.513c-6.893 1.354-12.096 7.424-12.096 14.714s5.203 13.36 12.096 14.713l17.904 3.514 20-18.227z" fill="#424247"/><path d="m90 398.5-60 11.773v36.454l60 11.773 60-30z" fill="#f4ce93"/><path d="m407 398.5-30 30 30 30h30v-60z" fill="#fff"/><path d="m248.5 408.5-128.5 20c-16.569 0-30 13.431-30 30h317v-30z" fill="#ec9345"/><path d="m90 398.5c0 16.569 13.431 30 30 30h287v-30z" fill="#ecc04b"/></g></svg>